<svg xmlns="http://www.w3.org/2000/svg" xmlns:xlink="http://www.w3.org/1999/xlink" xml:lang="en" height="647.5999999999999pt" width="796.4660000000001pt" viewBox="-10.666000000000004 -329.4 796.4660000000001 647.5999999999999"><circle cx="36" cy="-234" r="18" style="stroke:black;fill:none;stroke-width:2.0;stroke-dasharray:-;" /><circle cx="237.6" cy="-291.6" r="18" style="stroke:#1f77b4;fill:none;stroke-width:2.0;stroke-dasharray:-;" /><circle cx="36" cy="-90" r="18" style="stroke:black;fill:none;stroke-width:2.0;stroke-dasharray:-;" /><circle cx="460.8" cy="-295.2" r="18" style="stroke:#1f77b4;fill:none;stroke-width:2.0;stroke-dasharray:-;" /><path d="M 0.0,-234.0 L 18,-234 L 18,-234 M 54,-234 L 54,-234 L 72,-234" style="stroke:black;fill:none;stroke-width:2.0;stroke-dasharray:-;stroke-linecap:round;stroke-linejoin:round;" /><path d="M 32.4,-238.5 L 32.4,-229.5" style="stroke:black;fill:none;stroke-width:2.0;stroke-dasharray:-;stroke-linecap:round;stroke-linejoin:round;" /><path d="M 39.6,-243.9 L 39.6,-224.1" style="stroke:black;fill:none;stroke-width:2.0;stroke-dasharray:-;stroke-linecap:round;stroke-linejoin:round;" /><path d="M 18.0,-234.0 L 32.4,-234 M 39.6,-234 L 54,-234" style="stroke:black;fill:none;stroke-width:2.0;stroke-dasharray:-;stroke-linecap:round;stroke-linejoin:round;" /><path d="M 57.6,-266.40000000000003 L 53.164,-261.964" style="stroke:black;fill:none;stroke-width:2.0;stroke-dasharray:-;stroke-linecap:round;stroke-linejoin:round;" /><path d="M 48.214 -257.014 L 51.255 -263.873 L 55.073 -260.055 Z" style="stroke:black;fill:black;stroke-linecap:butt;stroke-linejoin:miter;" /><path d="M 64.8,-259.2 L 60.364,-254.764" style="stroke:black;fill:none;stroke-width:2.0;stroke-dasharray:-;stroke-linecap:round;stroke-linejoin:round;" /><path d="M 55.414 -249.814 L 58.455 -256.673 L 62.273 -252.855 Z" style="stroke:black;fill:black;stroke-linecap:butt;stroke-linejoin:miter;" /><path d="M 72.0,-234.0 L 100.8,-234 L 129.6,-234" style="stroke:black;fill:none;stroke-width:2.0;stroke-dasharray:-;stroke-linecap:round;stroke-linejoin:round;" /><path d="M 129.6,-234.0 L 129.6,-255.6 L 216,-255.6 L 216,-212.4 L 129.6,-212.4 L 129.6,-234" style="stroke:black;fill:none;stroke-width:2.0;stroke-dasharray:-;stroke-linecap:round;stroke-linejoin:round;" /><path d="M 216.0,-234.0 L 237.6,-234 L 259.2,-234" style="stroke:black;fill:none;stroke-width:2.0;stroke-dasharray:-;stroke-linecap:round;stroke-linejoin:round;" /><path d="M 259.2,-234.0 L 259.2,-255.6 L 345.6,-255.6 L 345.6,-212.4 L 259.2,-212.4 L 259.2,-234" style="stroke:black;fill:none;stroke-width:2.0;stroke-dasharray:-;stroke-linecap:round;stroke-linejoin:round;" /><path d="M 345.59999999999997,-234.0 L 433.8,-234 L 522,-234" style="stroke:black;fill:none;stroke-width:2.0;stroke-dasharray:-;stroke-linecap:round;stroke-linejoin:round;" /><path d="M 237.6,-234.0 L 237.6,-250.2 L 237.6,-266.4" style="stroke:#1f77b4;fill:none;stroke-width:2.0;stroke-dasharray:7.4,3.2;stroke-linecap:round;stroke-linejoin:round;" /><path d="M 237.6,-266.40000000000003 L 237.6,-273.6 L 237.6,-273.6 M 237.6,-309.6 L 237.6,-309.6 L 237.6,-316.8" style="stroke:#1f77b4;fill:none;stroke-width:2.0;stroke-dasharray:-;stroke-linecap:round;stroke-linejoin:round;" /><path d="M 0.0,-90.0 L 18,-90 L 18,-90 M 54,-90 L 54,-90 L 72,-90" style="stroke:black;fill:none;stroke-width:2.0;stroke-dasharray:-;stroke-linecap:round;stroke-linejoin:round;" /><path d="M 32.4,-94.5 L 32.4,-85.5" style="stroke:black;fill:none;stroke-width:2.0;stroke-dasharray:-;stroke-linecap:round;stroke-linejoin:round;" /><path d="M 39.6,-99.89999999999999 L 39.6,-80.1" style="stroke:black;fill:none;stroke-width:2.0;stroke-dasharray:-;stroke-linecap:round;stroke-linejoin:round;" /><path d="M 18.0,-90.0 L 32.4,-90 M 39.6,-90 L 54,-90" style="stroke:black;fill:none;stroke-width:2.0;stroke-dasharray:-;stroke-linecap:round;stroke-linejoin:round;" /><path d="M 57.6,-122.39999999999999 L 53.164,-117.964" style="stroke:black;fill:none;stroke-width:2.0;stroke-dasharray:-;stroke-linecap:round;stroke-linejoin:round;" /><path d="M 48.214 -113.014 L 51.255 -119.873 L 55.073 -116.055 Z" style="stroke:black;fill:black;stroke-linecap:butt;stroke-linejoin:miter;" /><path d="M 64.8,-115.2 L 60.364,-110.764" style="stroke:black;fill:none;stroke-width:2.0;stroke-dasharray:-;stroke-linecap:round;stroke-linejoin:round;" /><path d="M 55.414 -105.814 L 58.455 -112.673 L 62.273 -108.855 Z" style="stroke:black;fill:black;stroke-linecap:butt;stroke-linejoin:miter;" /><path d="M 72.0,-90.0 L 100.8,-90 L 129.6,-90" style="stroke:black;fill:none;stroke-width:2.0;stroke-dasharray:-;stroke-linecap:round;stroke-linejoin:round;" /><path d="M 129.6,-90.0 L 129.6,-111.6 L 216,-111.6 L 216,-68.4 L 129.6,-68.4 L 129.6,-90" style="stroke:black;fill:none;stroke-width:2.0;stroke-dasharray:-;stroke-linecap:round;stroke-linejoin:round;" /><path d="M 216.0,-90.0 L 237.6,-90 L 259.2,-90" style="stroke:black;fill:none;stroke-width:2.0;stroke-dasharray:-;stroke-linecap:round;stroke-linejoin:round;" /><path d="M 259.2,-90.0 L 259.2,-111.6 L 345.6,-111.6 L 345.6,-68.4 L 259.2,-68.4 L 259.2,-90" style="stroke:black;fill:none;stroke-width:2.0;stroke-dasharray:-;stroke-linecap:round;stroke-linejoin:round;" /><path d="M 345.59999999999997,-90.0 L 433.8,-90 L 522,-90" style="stroke:black;fill:none;stroke-width:2.0;stroke-dasharray:-;stroke-linecap:round;stroke-linejoin:round;" /><path d="M 522.0,-306.0 L 522,-9 L 522,288" style="stroke:black;fill:none;stroke-width:3.5;stroke-dasharray:-;stroke-linecap:round;stroke-linejoin:round;" /><path d="M 522.0,-295.2 L 504,-295.2 L 486,-295.2" style="stroke:#1f77b4;fill:none;stroke-width:2.0;stroke-dasharray:7.4,3.2;stroke-linecap:round;stroke-linejoin:round;" /><path d="M 486.0,-295.2 L 478.8,-295.2 L 478.8,-295.2 M 442.8,-295.2 L 442.8,-295.2 L 435.6,-295.2" style="stroke:#1f77b4;fill:none;stroke-width:2.0;stroke-dasharray:-;stroke-linecap:round;stroke-linejoin:round;" /><path d="M 522.0,252.0 L 437.4,252 L 352.8,252" style="stroke:black;fill:none;stroke-width:2.0;stroke-dasharray:-;stroke-linecap:round;stroke-linejoin:round;" /><path d="M 252.00000000000003,251.99999999999997 L 252,230.4 L 352.8,230.4 L 352.8,273.6 L 252,273.6 L 252,252" style="stroke:black;fill:none;stroke-width:2.0;stroke-dasharray:-;stroke-linecap:round;stroke-linejoin:round;" /><path d="M 252.00000000000003,251.99999999999997 L 217.8,252 L 183.6,252" style="stroke:black;fill:none;stroke-width:2.0;stroke-dasharray:-;stroke-linecap:round;stroke-linejoin:round;" /><path d="M 183.60000000000005,251.99999999999997 L 157.725,252 M 137.475,252 L 111.6,252" style="stroke:black;fill:none;stroke-width:2.0;stroke-dasharray:-;stroke-linecap:round;stroke-linejoin:round;" /><path d="M 157.72500000000005,265.49999999999994 L 157.725,238.5" style="stroke:black;fill:none;stroke-width:2.0;stroke-dasharray:-;stroke-linecap:round;stroke-linejoin:round;" /><path d="M 150.97500000000005,258.74999999999994 L 150.975,245.25" style="stroke:black;fill:none;stroke-width:2.0;stroke-dasharray:-;stroke-linecap:round;stroke-linejoin:round;" /><path d="M 144.22500000000005,265.49999999999994 L 144.225,238.5" style="stroke:black;fill:none;stroke-width:2.0;stroke-dasharray:-;stroke-linecap:round;stroke-linejoin:round;" /><path d="M 137.47500000000005,258.74999999999994 L 137.475,245.25" style="stroke:black;fill:none;stroke-width:2.0;stroke-dasharray:-;stroke-linecap:round;stroke-linejoin:round;" /><path d="M 522.0,-252.0 L 540,-252 M 548.64,-255.6 L 568.8,-268.2 M 576,-252 L 594,-252" style="stroke:black;fill:none;stroke-width:2.0;stroke-dasharray:-;stroke-linecap:round;stroke-linejoin:round;" /><path d="M 594.0,-252.0 L 604.8,-252 L 604.8,-261 L 640.8,-261 L 640.8,-243 L 604.8,-243 L 604.8,-252 M 640.8,-252 L 651.6,-252" style="stroke:black;fill:none;stroke-width:2.0;stroke-dasharray:-;stroke-linecap:round;stroke-linejoin:round;" /><path d="M 604.8000000000001,-252.0 L 640.8,-252" style="stroke:black;fill:none;stroke-width:2.0;stroke-dasharray:-;stroke-linecap:round;stroke-linejoin:round;" /><path d="M 651.6,-252.0 L 651.6,-272.7 L 781.2,-272.7 L 781.2,-231.3 L 651.6,-231.3 L 651.6,-252" style="stroke:black;fill:none;stroke-width:2.0;stroke-dasharray:-;stroke-linecap:round;stroke-linejoin:round;" /><path d="M 522.0,-162.0 L 540,-162 M 548.64,-165.6 L 568.8,-178.2 M 576,-162 L 594,-162" style="stroke:black;fill:none;stroke-width:2.0;stroke-dasharray:-;stroke-linecap:round;stroke-linejoin:round;" /><path d="M 594.0,-162.0 L 604.8,-162 L 604.8,-171 L 640.8,-171 L 640.8,-153 L 604.8,-153 L 604.8,-162 M 640.8,-162 L 651.6,-162" style="stroke:black;fill:none;stroke-width:2.0;stroke-dasharray:-;stroke-linecap:round;stroke-linejoin:round;" /><path d="M 604.8000000000001,-162.0 L 640.8,-162" style="stroke:black;fill:none;stroke-width:2.0;stroke-dasharray:-;stroke-linecap:round;stroke-linejoin:round;" /><path d="M 651.6,-162.0 L 651.6,-182.7 L 781.2,-182.7 L 781.2,-141.3 L 651.6,-141.3 L 651.6,-162" style="stroke:black;fill:none;stroke-width:2.0;stroke-dasharray:-;stroke-linecap:round;stroke-linejoin:round;" /><path d="M 522.0,-72.0 L 540,-72 M 548.64,-75.6 L 568.8,-88.2 M 576,-72 L 594,-72" style="stroke:black;fill:none;stroke-width:2.0;stroke-dasharray:-;stroke-linecap:round;stroke-linejoin:round;" /><path d="M 594.0,-72.0 L 604.8,-72 L 604.8,-81 L 640.8,-81 L 640.8,-63 L 604.8,-63 L 604.8,-72 M 640.8,-72 L 651.6,-72" style="stroke:black;fill:none;stroke-width:2.0;stroke-dasharray:-;stroke-linecap:round;stroke-linejoin:round;" /><path d="M 604.8000000000001,-72.0 L 640.8,-72" style="stroke:black;fill:none;stroke-width:2.0;stroke-dasharray:-;stroke-linecap:round;stroke-linejoin:round;" /><path d="M 651.6,-72.0 L 651.6,-92.7 L 781.2,-92.7 L 781.2,-51.3 L 651.6,-51.3 L 651.6,-72" style="stroke:black;fill:none;stroke-width:2.0;stroke-dasharray:-;stroke-linecap:round;stroke-linejoin:round;" /><path d="M 522.0,18.0 L 540,18 M 548.64,14.4 L 568.8,1.8 M 576,18 L 594,18" style="stroke:black;fill:none;stroke-width:2.0;stroke-dasharray:-;stroke-linecap:round;stroke-linejoin:round;" /><path d="M 594.0,18.0 L 604.8,18 L 604.8,9 L 640.8,9 L 640.8,27 L 604.8,27 L 604.8,18 M 640.8,18 L 651.6,18" style="stroke:black;fill:none;stroke-width:2.0;stroke-dasharray:-;stroke-linecap:round;stroke-linejoin:round;" /><path d="M 604.8000000000001,18.0 L 640.8,18" style="stroke:black;fill:none;stroke-width:2.0;stroke-dasharray:-;stroke-linecap:round;stroke-linejoin:round;" /><path d="M 651.6,18.0 L 651.6,-2.7 L 781.2,-2.7 L 781.2,38.7 L 651.6,38.7 L 651.6,18" style="stroke:black;fill:none;stroke-width:2.0;stroke-dasharray:-;stroke-linecap:round;stroke-linejoin:round;" /><path d="M 522.0,108.0 L 540,108 M 548.64,104.4 L 568.8,91.8 M 576,108 L 594,108" style="stroke:black;fill:none;stroke-width:2.0;stroke-dasharray:-;stroke-linecap:round;stroke-linejoin:round;" /><path d="M 594.0,108.0 L 604.8,108 L 604.8,99 L 640.8,99 L 640.8,117 L 604.8,117 L 604.8,108 M 640.8,108 L 651.6,108" style="stroke:black;fill:none;stroke-width:2.0;stroke-dasharray:-;stroke-linecap:round;stroke-linejoin:round;" /><path d="M 604.8000000000001,108.0 L 640.8,108" style="stroke:black;fill:none;stroke-width:2.0;stroke-dasharray:-;stroke-linecap:round;stroke-linejoin:round;" /><path d="M 651.6,108.0 L 651.6,87.3 L 781.2,87.3 L 781.2,128.7 L 651.6,128.7 L 651.6,108" style="stroke:black;fill:none;stroke-width:2.0;stroke-dasharray:-;stroke-linecap:round;stroke-linejoin:round;" /><path d="M 522.0,198.0 L 540,198 M 548.64,194.4 L 568.8,181.8 M 576,198 L 594,198" style="stroke:black;fill:none;stroke-width:2.0;stroke-dasharray:-;stroke-linecap:round;stroke-linejoin:round;" /><path d="M 594.0,198.0 L 604.8,198 L 604.8,189 L 640.8,189 L 640.8,207 L 604.8,207 L 604.8,198 M 640.8,198 L 651.6,198" style="stroke:black;fill:none;stroke-width:2.0;stroke-dasharray:-;stroke-linecap:round;stroke-linejoin:round;" /><path d="M 604.8000000000001,198.0 L 640.8,198" style="stroke:black;fill:none;stroke-width:2.0;stroke-dasharray:-;stroke-linecap:round;stroke-linejoin:round;" /><path d="M 651.6,198.0 L 651.6,177.3 L 781.2,177.3 L 781.2,218.7 L 651.6,218.7 L 651.6,198" style="stroke:black;fill:none;stroke-width:2.0;stroke-dasharray:-;stroke-linecap:round;stroke-linejoin:round;" /><path d="M 0.0,162.0 L 0,115.2 L 230.4,115.2 L 230.4,208.8 L 0,208.8 L 0,162" style="stroke:black;fill:none;stroke-width:1;stroke-dasharray:-;stroke-linecap:round;stroke-linejoin:round;" /><text x="36.0" y="-302.40000000000003" dominant-baseline="ideographic" fill="black" font-size="9" font-family="sans" text-anchor="middle"><tspan x="36.0" dy="9">+Y wing</tspan><tspan x="36.0" dy="9">60 W BOL</tspan><tspan x="36.0" dy="9">Vmp 28 V / Imp 2.1 A</tspan></text><text x="172.79999999999998" y="-247.5" dominant-baseline="central" fill="black" font-size="9" font-family="sans" text-anchor="middle"><tspan x="172.79999999999998" dy="9">SADA</tspan><tspan x="172.79999999999998" dy="9">slip ring</tspan></text><text x="302.40000000000003" y="-247.5" dominant-baseline="central" fill="black" font-size="9" font-family="sans" text-anchor="middle"><tspan x="302.40000000000003" dy="9">MPPT</tspan><tspan x="302.40000000000003" dy="9">buck</tspan></text><text x="237.6" y="-305.59999999999997" dominant-baseline="central" fill="#1f77b4" font-size="14" font-family="sans" text-anchor="middle"><tspan x="237.6" dy="14">V</tspan></text><text x="216.0" y="-299.59999999999997" dominant-baseline="central" fill="#1f77b4" font-size="8" font-family="sans" text-anchor="end"><tspan x="216.0" dy="8">PWR_SOLAR_VOLTAGE</tspan></text><text x="36.0" y="-158.4" dominant-baseline="ideographic" fill="black" font-size="9" font-family="sans" text-anchor="middle"><tspan x="36.0" dy="9">-Y wing</tspan><tspan x="36.0" dy="9">60 W BOL</tspan><tspan x="36.0" dy="9">Vmp 28 V / Imp 2.1 A</tspan></text><text x="172.79999999999998" y="-103.5" dominant-baseline="central" fill="black" font-size="9" font-family="sans" text-anchor="middle"><tspan x="172.79999999999998" dy="9">SADA</tspan><tspan x="172.79999999999998" dy="9">slip ring</tspan></text><text x="302.40000000000003" y="-103.5" dominant-baseline="central" fill="black" font-size="9" font-family="sans" text-anchor="middle"><tspan x="302.40000000000003" dy="9">MPPT</tspan><tspan x="302.40000000000003" dy="9">buck</tspan></text><text x="612.0" y="-327.8" dominant-baseline="central" fill="black" font-size="11" font-family="sans" text-anchor="middle"><tspan x="612.0" dy="11">24 V battery bus</tspan></text><text x="460.8" y="-309.2" dominant-baseline="central" fill="#1f77b4" font-size="14" font-family="sans" text-anchor="middle"><tspan x="460.8" dy="14">V</tspan></text><text x="460.8" y="-324.79999999999995" dominant-baseline="ideographic" fill="#1f77b4" font-size="8" font-family="sans" text-anchor="middle"><tspan x="460.8" dy="8">PWR_BATTERY_VOLTAGE</tspan></text><text x="302.40000000000003" y="238.5" dominant-baseline="central" fill="black" font-size="9" font-family="sans" text-anchor="middle"><tspan x="302.40000000000003" dy="9">charge /</tspan><tspan x="302.40000000000003" dy="9">discharge ctl</tspan></text><text x="217.8" y="247.59999999999997" dominant-baseline="hanging" fill="black" font-size="8" font-family="sans" text-anchor="middle"><tspan x="217.8" dy="8">chg 2 A max</tspan><tspan x="217.8" dy="8">dis 6 A max</tspan></text><text x="147.60000000000005" y="260.09999999999997" dominant-baseline="hanging" fill="black" font-size="9" font-family="sans" text-anchor="middle"><tspan x="147.60000000000005" dy="9">Li-ion, 6 cells in series</tspan><tspan x="147.60000000000005" dy="9">22.2 V nominal</tspan></text><text x="144.00000000000006" y="301.59999999999997" dominant-baseline="central" fill="#1f77b4" font-size="8" font-family="sans" text-anchor="middle"><tspan x="144.00000000000006" dy="8">PWR_BATTERY_TEMP</tspan></text><circle cx="544.32" cy="-252" r="4.32" style="stroke:black;fill:white;stroke-width:2.0;stroke-dasharray:-;" /><circle cx="571.68" cy="-252" r="4.32" style="stroke:black;fill:white;stroke-width:2.0;stroke-dasharray:-;" /><text x="558.0" y="-279.8" dominant-baseline="ideographic" fill="black" font-size="8" font-family="sans" text-anchor="middle"><tspan x="558.0" dy="8">LCL</tspan></text><text x="563.4" y="-290.59999999999997" dominant-baseline="central" fill="#1f77b4" font-size="8" font-family="sans" text-anchor="middle"><tspan x="563.4" dy="8">PWR_CDH_STATE</tspan></text><text x="716.4000000000001" y="-265.5" dominant-baseline="central" fill="black" font-size="9" font-family="sans" text-anchor="middle"><tspan x="716.4000000000001" dy="9">CDH (OBC + GPS)</tspan><tspan x="716.4000000000001" dy="9">0.3 A</tspan></text><circle cx="544.32" cy="-162" r="4.32" style="stroke:black;fill:white;stroke-width:2.0;stroke-dasharray:-;" /><circle cx="571.68" cy="-162" r="4.32" style="stroke:black;fill:white;stroke-width:2.0;stroke-dasharray:-;" /><text x="558.0" y="-189.79999999999998" dominant-baseline="ideographic" fill="black" font-size="8" font-family="sans" text-anchor="middle"><tspan x="558.0" dy="8">LCL</tspan></text><text x="563.4" y="-200.6" dominant-baseline="central" fill="#1f77b4" font-size="8" font-family="sans" text-anchor="middle"><tspan x="563.4" dy="8">PWR_ADCS_STATE</tspan></text><text x="716.4000000000001" y="-175.5" dominant-baseline="central" fill="black" font-size="9" font-family="sans" text-anchor="middle"><tspan x="716.4000000000001" dy="9">ADCS</tspan><tspan x="716.4000000000001" dy="9">0.5 A / 2.5 A slew</tspan></text><circle cx="544.32" cy="-72" r="4.32" style="stroke:black;fill:white;stroke-width:2.0;stroke-dasharray:-;" /><circle cx="571.68" cy="-72" r="4.32" style="stroke:black;fill:white;stroke-width:2.0;stroke-dasharray:-;" /><text x="558.0" y="-99.8" dominant-baseline="ideographic" fill="black" font-size="8" font-family="sans" text-anchor="middle"><tspan x="558.0" dy="8">LCL</tspan></text><text x="563.4" y="-110.60000000000001" dominant-baseline="central" fill="#1f77b4" font-size="8" font-family="sans" text-anchor="middle"><tspan x="563.4" dy="8">PWR_COMMS_STATE</tspan></text><text x="716.4000000000001" y="-85.5" dominant-baseline="central" fill="black" font-size="9" font-family="sans" text-anchor="middle"><tspan x="716.4000000000001" dy="9">COMMS</tspan><tspan x="716.4000000000001" dy="9">0.1 A RX / 1.9 A TX</tspan></text><circle cx="544.32" cy="18" r="4.32" style="stroke:black;fill:white;stroke-width:2.0;stroke-dasharray:-;" /><circle cx="571.68" cy="18" r="4.32" style="stroke:black;fill:white;stroke-width:2.0;stroke-dasharray:-;" /><text x="558.0" y="-9.8" dominant-baseline="ideographic" fill="black" font-size="8" font-family="sans" text-anchor="middle"><tspan x="558.0" dy="8">LCL</tspan></text><text x="563.4" y="-20.6" dominant-baseline="central" fill="#1f77b4" font-size="8" font-family="sans" text-anchor="middle"><tspan x="563.4" dy="8">PWR_IMAGER_STATE</tspan></text><text x="716.4000000000001" y="4.5" dominant-baseline="central" fill="black" font-size="9" font-family="sans" text-anchor="middle"><tspan x="716.4000000000001" dy="9">IMAGER</tspan><tspan x="716.4000000000001" dy="9">0.2 A / 1.0 A</tspan></text><circle cx="544.32" cy="108" r="4.32" style="stroke:black;fill:white;stroke-width:2.0;stroke-dasharray:-;" /><circle cx="571.68" cy="108" r="4.32" style="stroke:black;fill:white;stroke-width:2.0;stroke-dasharray:-;" /><text x="558.0" y="80.2" dominant-baseline="ideographic" fill="black" font-size="8" font-family="sans" text-anchor="middle"><tspan x="558.0" dy="8">LCL</tspan></text><text x="563.4" y="69.39999999999999" dominant-baseline="central" fill="#1f77b4" font-size="8" font-family="sans" text-anchor="middle"><tspan x="563.4" dy="8">PWR_HEATER_STATE</tspan></text><text x="716.4000000000001" y="94.5" dominant-baseline="central" fill="black" font-size="9" font-family="sans" text-anchor="middle"><tspan x="716.4000000000001" dy="9">HEATERS</tspan><tspan x="716.4000000000001" dy="9">0.4-0.8 A duty</tspan></text><circle cx="544.32" cy="198" r="4.32" style="stroke:black;fill:white;stroke-width:2.0;stroke-dasharray:-;" /><circle cx="571.68" cy="198" r="4.32" style="stroke:black;fill:white;stroke-width:2.0;stroke-dasharray:-;" /><text x="558.0" y="170.20000000000002" dominant-baseline="ideographic" fill="black" font-size="8" font-family="sans" text-anchor="middle"><tspan x="558.0" dy="8">LCL</tspan></text><text x="716.4000000000001" y="184.5" dominant-baseline="central" fill="black" font-size="9" font-family="sans" text-anchor="middle"><tspan x="716.4000000000001" dy="9">SADA motors x2</tspan><tspan x="716.4000000000001" dy="9">0.04-0.4 A</tspan></text><text x="583.2" y="286.8" dominant-baseline="central" fill="#1f77b4" font-size="8" font-family="sans" text-anchor="middle"><tspan x="583.2" dy="8">switches commanded by SET_POWER</tspan><tspan x="583.2" dy="8">(heater channel: HEATER_ON/OFF/AUTO)</tspan></text><text x="14.4" y="121.6" dominant-baseline="central" fill="black" font-size="8" font-family="sans" text-anchor="start"><tspan x="14.4" dy="8">black: physical element, no telemetry</tspan></text><text x="14.4" y="146.8" dominant-baseline="central" fill="#1f77b4" font-size="8" font-family="sans" text-anchor="start"><tspan x="14.4" dy="8">blue: XTCE parameter, driven by the sim today</tspan></text><text x="14.4" y="172.0" dominant-baseline="central" fill="#e8801a" font-size="8" font-family="sans" text-anchor="start"><tspan x="14.4" dy="8">(orange = declared but undriven: none remain on this card)</tspan></text><circle cx="522" cy="-234" r="2.7" style="stroke:black;fill:black;stroke-width:2.0;stroke-dasharray:-;" /><path d="M 390.6,-234.0 L 390.6,-234" style="stroke:#1f77b4;fill:none;stroke-width:2.0;stroke-dasharray:-;stroke-linecap:round;stroke-linejoin:round;" /><path d="M 399.4 -234 L 390.6 -228.6 L 390.6 -239.4 Z" style="stroke:#1f77b4;fill:#1f77b4;stroke-linecap:butt;stroke-linejoin:miter;" /><text x="396.0" y="-252.79999999999998" dominant-baseline="ideographic" fill="#1f77b4" font-size="8" font-family="sans" text-anchor="middle"><tspan x="396.0" dy="8">PWR_SOLAR_CURRENT</tspan></text><circle cx="522" cy="-90" r="2.7" style="stroke:black;fill:black;stroke-width:2.0;stroke-dasharray:-;" /><circle cx="522" cy="252" r="2.7" style="stroke:black;fill:black;stroke-width:2.0;stroke-dasharray:-;" /><path d="M 480.59999999999997,252.0 L 480.6,252" style="stroke:#1f77b4;fill:none;stroke-width:2.0;stroke-dasharray:-;stroke-linecap:round;stroke-linejoin:round;" /><path d="M 471.8 252 L 480.6 246.6 L 480.6 257.4 Z" style="stroke:#1f77b4;fill:#1f77b4;stroke-linecap:butt;stroke-linejoin:miter;" /><text x="475.2" y="233.20000000000002" dominant-baseline="ideographic" fill="#1f77b4" font-size="8" font-family="sans" text-anchor="middle"><tspan x="475.2" dy="8">PWR_BATTERY_CURRENT (+/-)</tspan></text><circle cx="522" cy="-252" r="2.7" style="stroke:black;fill:black;stroke-width:2.0;stroke-dasharray:-;" /><circle cx="522" cy="-162" r="2.7" style="stroke:black;fill:black;stroke-width:2.0;stroke-dasharray:-;" /><circle cx="522" cy="-72" r="2.7" style="stroke:black;fill:black;stroke-width:2.0;stroke-dasharray:-;" /><circle cx="522" cy="18" r="2.7" style="stroke:black;fill:black;stroke-width:2.0;stroke-dasharray:-;" /><circle cx="522" cy="108" r="2.7" style="stroke:black;fill:black;stroke-width:2.0;stroke-dasharray:-;" /><circle cx="522" cy="198" r="2.7" style="stroke:black;fill:black;stroke-width:2.0;stroke-dasharray:-;" /></svg>